# xmcd CD database file
#
# Track frame offsets:
#	150
#	14150
#	34047
#	50615
#	69405
#	92646
#	134117
#	145562
#	167109
#	201451
#	223618
#
# Disc length: 3254 seconds
#
# Revision: 0
# Processed by: cddbd v1.5.2PL0 Copyright (c) Steve Scherf et al.
# Submitted via: CDex 1.51
#
DISCID=a90cb40b
DTITLE=Memphis La Blusera - 25 años
DYEAR=2004
DGENRE=Blues
TTITLE0=Vuelvo a casa mamá
TTITLE1=Boggie de la valija
TTITLE2=Blues del tren
TTITLE3=Moscato, pizza y fain''a
TTITLE4=Nunca tuve tanto blues
TTITLE5=Se necesita
TTITLE6=Seducidos por papi lucifer
TTITLE7=Nena seguí de largo
TTITLE8=La bifurcada
TTITLE9=Rodar o morir
TTITLE10=Que la vida siga
EXTD=YEAR: 2004
EXTT0=
EXTT1=
EXTT2=
EXTT3=
EXTT4=
EXTT5=
EXTT6=
EXTT7=
EXTT8=
EXTT9=
EXTT10=
PLAYORDER=
